<?xml version="1.0" encoding="utf-8"?>
<!-- Generator: Adobe Illustrator 27.5.0, SVG Export Plug-In . SVG Version: 6.00 Build 0)  -->
<svg version="1.1" id="Layer_1" xmlns="http://www.w3.org/2000/svg" xmlns:xlink="http://www.w3.org/1999/xlink" x="0px" y="0px"
	 viewBox="0 0 101.62 24.95" style="enable-background:new 0 0 101.62 24.95;" xml:space="preserve">
<style type="text/css">
	.st0{fill:#FFFFFF;}
</style>
<path class="st0" d="M97.3,19.36c-0.49-0.09-0.89-0.2-1.19-0.33c-0.3-0.13-0.45-0.33-0.45-0.6c0-0.32,0.17-0.56,0.52-0.72
	c0.34-0.16,0.74-0.24,1.19-0.24c0.82,0,1.49,0.25,2,0.74c0.51,0.49,0.88,0.74,1.1,0.74c0.3,0,0.49-0.07,0.56-0.22
	c0.07-0.15,0.11-0.36,0.11-0.62c0-0.26-0.03-0.5-0.09-0.7c-0.06-0.21-0.24-0.38-0.55-0.53c-0.31-0.15-0.8-0.28-1.48-0.4
	c-0.68-0.11-1.31-0.17-1.89-0.17c-1.34,0-2.53,0.24-3.56,0.73c-1.04,0.48-1.55,1.21-1.55,2.18c0,0.88,0.3,1.43,0.89,1.65
	c0.6,0.22,1.56,0.47,2.91,0.74c1.34,0.27,2.01,0.64,2.01,1.1c0,0.34-0.2,0.6-0.6,0.76c-0.4,0.17-0.83,0.25-1.3,0.25
	c-0.6,0-1.05-0.1-1.36-0.29c-0.31-0.2-0.6-0.41-0.87-0.63c-0.27-0.22-0.46-0.37-0.58-0.44c-0.12-0.07-0.29-0.1-0.51-0.1
	c-0.27,0-0.49,0.08-0.67,0.24c-0.18,0.16-0.27,0.34-0.27,0.55c0,0.32,0.18,0.6,0.53,0.85c0.35,0.25,0.86,0.49,1.52,0.72
	c0.66,0.23,1.55,0.34,2.67,0.34c0.58,0,1.19-0.06,1.82-0.17c0.63-0.11,1.2-0.29,1.71-0.54c0.51-0.25,0.92-0.56,1.24-0.95
	c0.32-0.39,0.48-0.82,0.48-1.3c0-0.72-0.29-1.25-0.86-1.6c-0.58-0.34-1.38-0.62-2.41-0.82L97.3,19.36z M86.25,22.81
	c-0.34,0.64-1.01,0.96-2.01,0.96c-0.95,0-1.61-0.32-1.97-0.97c-0.36-0.65-0.54-1.39-0.54-2.24c0-0.8,0.2-1.5,0.59-2.11
	c0.39-0.61,1.05-0.91,1.96-0.91c0.89,0,1.53,0.3,1.91,0.89c0.38,0.59,0.57,1.27,0.57,2.04C86.76,21.39,86.59,22.17,86.25,22.81
	 M81.86,24.7c0.72,0.17,1.51,0.25,2.36,0.25c1.71,0,3.21-0.41,4.48-1.22c1.27-0.81,1.91-1.86,1.91-3.16c0-1.25-0.62-2.27-1.87-3.07
	c-1.24-0.8-2.69-1.2-4.32-1.2c-0.89,0-1.73,0.1-2.51,0.3c-0.78,0.2-1.48,0.51-2.09,0.93c-0.61,0.42-1.08,0.89-1.42,1.43
	c-0.34,0.54-0.5,1.1-0.5,1.7c0,0.63,0.17,1.22,0.51,1.78c0.34,0.56,0.83,1.04,1.48,1.44C80.47,24.27,81.13,24.54,81.86,24.7
	 M69.62,14.64c0-0.13,0.01-0.29,0.03-0.51c0.02-0.21,0.12-0.38,0.29-0.51c0.17-0.13,0.36-0.21,0.58-0.24
	c0.22-0.03,0.5-0.05,0.84-0.05c0.95,0,1.73,0.21,2.32,0.62c0.6,0.41,0.89,0.98,0.89,1.7c0,0.92-0.49,1.61-1.46,2.08
	c-0.98,0.47-2.14,0.77-3.5,0.91V14.64z M69.62,19.97c1.09,0,2.15-0.07,3.18-0.22c1.04-0.15,2.01-0.4,2.92-0.74
	c0.91-0.34,1.67-0.81,2.29-1.41c0.62-0.6,0.93-1.28,0.93-2.05c0-0.63-0.2-1.18-0.6-1.66c-0.4-0.48-0.94-0.85-1.62-1.12
	c-0.68-0.27-1.36-0.44-2.03-0.52c-0.68-0.08-1.45-0.12-2.31-0.12h-6.91c-0.3,0-0.56,0.04-0.77,0.13c-0.22,0.09-0.32,0.23-0.32,0.43
	c0,0.14,0.04,0.25,0.12,0.31c0.08,0.06,0.22,0.14,0.41,0.23l0.25,0.1c0.16,0.06,0.27,0.14,0.32,0.26c0.05,0.11,0.08,0.25,0.08,0.41
	v8.78c0,0.17-0.03,0.32-0.08,0.43c-0.05,0.11-0.16,0.2-0.32,0.26l-0.25,0.1c-0.18,0.09-0.31,0.16-0.4,0.22
	c-0.09,0.05-0.13,0.16-0.13,0.34c0,0.23,0.1,0.39,0.3,0.47c0.2,0.08,0.47,0.12,0.79,0.12h4.18c0.46,0,0.83-0.03,1.11-0.08
	c0.28-0.05,0.41-0.2,0.41-0.46c0-0.16-0.04-0.28-0.12-0.35c-0.08-0.07-0.26-0.15-0.54-0.23c-0.28-0.08-0.45-0.15-0.54-0.21
	c-0.08-0.06-0.14-0.13-0.18-0.21c-0.04-0.08-0.07-0.17-0.11-0.28c-0.04-0.11-0.06-0.22-0.06-0.34V19.97z M51.23,20.34v0.55
	c0,0.48-0.02,0.84-0.07,1.07c-0.04,0.23-0.17,0.48-0.39,0.74c-0.21,0.26-0.47,0.47-0.77,0.62c-0.3,0.15-0.61,0.22-0.96,0.22
	c-0.43,0-0.77-0.12-1.02-0.36c-0.25-0.24-0.38-0.53-0.38-0.87c0-0.65,0.31-1.14,0.93-1.47c0.62-0.33,1.37-0.5,2.24-0.5H51.23z
	 M54.87,19.64c0-0.65-0.13-1.19-0.4-1.62c-0.27-0.42-0.7-0.77-1.3-1.03c-0.6-0.26-1.21-0.44-1.85-0.54c-0.64-0.1-1.3-0.15-1.99-0.15
	c-0.97,0-1.98,0.11-3.04,0.32c-1.06,0.21-1.59,0.58-1.59,1.11c0,0.29,0.13,0.5,0.4,0.63c0.27,0.13,0.6,0.2,0.98,0.2
	c0.4,0,0.9-0.18,1.49-0.55c0.59-0.37,1.08-0.55,1.49-0.55c0.7,0,1.22,0.16,1.56,0.49c0.34,0.33,0.51,0.76,0.51,1.32h-0.76
	c-1.64,0-3.13,0.23-4.47,0.7c-1.34,0.47-2.01,1.25-2.01,2.33c0,0.83,0.39,1.49,1.17,1.95s1.73,0.7,2.84,0.7
	c0.73,0,1.4-0.11,2.01-0.32c0.61-0.21,1.09-0.54,1.45-0.98c0,0.42,0.07,0.71,0.2,0.85c0.13,0.14,0.47,0.21,1.01,0.21h2.25
	c0.37,0,0.67-0.03,0.89-0.09c0.22-0.06,0.33-0.22,0.33-0.46c0-0.15-0.04-0.25-0.12-0.32c-0.08-0.06-0.23-0.13-0.46-0.21
	c-0.22-0.08-0.37-0.18-0.45-0.3c-0.07-0.12-0.12-0.27-0.12-0.46c-0.01-0.18-0.01-0.36-0.01-0.52V19.64z M42.49,16.44h-1.83
	c-0.31,0-0.56,0.03-0.74,0.09c-0.18,0.06-0.27,0.18-0.27,0.38c0,0.22,0.17,0.41,0.5,0.58c0.34,0.17,0.5,0.42,0.5,0.75
	c0,0.55-0.21,1.31-0.61,2.28c-0.41,0.97-0.82,1.76-1.24,2.37l-1.34-2.67c-0.24-0.65-0.41-1.15-0.5-1.49
	c-0.1-0.34-0.15-0.62-0.15-0.84c0-0.17,0.13-0.32,0.38-0.45c0.25-0.13,0.38-0.28,0.38-0.46c0-0.24-0.1-0.39-0.29-0.45
	c-0.19-0.06-0.5-0.09-0.92-0.09h-2.95c-0.27,0-0.51,0.03-0.72,0.1c-0.21,0.07-0.31,0.19-0.31,0.38c0,0.13,0.03,0.22,0.08,0.27
	c0.05,0.06,0.18,0.15,0.38,0.28c0.2,0.13,0.33,0.27,0.39,0.41c0.06,0.14,0.09,0.35,0.09,0.63v0.21c0,1.44-0.45,2.83-1.34,4.17
	c-0.28-0.37-0.52-0.74-0.72-1.12c-0.19-0.38-0.4-0.88-0.61-1.5c-0.22-0.62-0.37-1.11-0.47-1.49c-0.1-0.38-0.15-0.67-0.15-0.87
	c0-0.16,0.13-0.3,0.39-0.42c0.26-0.12,0.39-0.28,0.39-0.49c0-0.24-0.09-0.39-0.28-0.45c-0.19-0.06-0.47-0.09-0.86-0.09h-3.22
	c-0.33,0-0.59,0.03-0.77,0.1c-0.19,0.07-0.28,0.21-0.28,0.43c0,0.13,0.05,0.24,0.16,0.33c0.1,0.1,0.22,0.19,0.34,0.27
	c0.12,0.08,0.2,0.18,0.25,0.3c0.04,0.12,0.08,0.23,0.11,0.33l0.25,0.86c0.24,0.81,0.52,1.58,0.85,2.32
	c0.33,0.73,0.69,1.41,1.08,2.04c0.39,0.63,0.73,1.04,1.02,1.24c0.28,0.19,0.76,0.29,1.43,0.29c0.42,0,0.74-0.04,0.97-0.13
	c0.23-0.09,0.5-0.3,0.82-0.63c0.31-0.34,0.59-0.7,0.84-1.1c0.25-0.4,0.52-0.91,0.82-1.52c0.34,0.7,0.63,1.25,0.87,1.66
	c0.24,0.41,0.5,0.76,0.79,1.06c0.29,0.3,0.56,0.48,0.79,0.56c0.24,0.07,0.57,0.11,1.01,0.11c0.33,0,0.6-0.03,0.83-0.08
	c0.22-0.05,0.44-0.16,0.66-0.33c0.22-0.17,0.45-0.43,0.69-0.78c0.25-0.35,0.47-0.71,0.66-1.06l1.86-4.41
	c0.09-0.25,0.16-0.41,0.21-0.49c0.05-0.07,0.16-0.18,0.31-0.31c0.16-0.13,0.26-0.24,0.32-0.32c0.06-0.08,0.09-0.17,0.09-0.26
	c0-0.19-0.08-0.32-0.25-0.39C43.02,16.47,42.79,16.44,42.49,16.44z M20.38,20.34v0.55c0,0.48-0.02,0.84-0.07,1.07
	c-0.04,0.23-0.17,0.48-0.39,0.74c-0.21,0.26-0.47,0.47-0.77,0.62c-0.3,0.15-0.61,0.22-0.96,0.22c-0.43,0-0.77-0.12-1.02-0.36
	c-0.25-0.24-0.38-0.53-0.38-0.87c0-0.65,0.31-1.14,0.93-1.47c0.62-0.33,1.37-0.5,2.24-0.5H20.38z M24.03,19.64
	c0-0.65-0.13-1.19-0.4-1.62c-0.27-0.42-0.7-0.77-1.3-1.03c-0.6-0.26-1.21-0.44-1.86-0.54c-0.64-0.1-1.3-0.15-1.99-0.15
	c-0.97,0-1.98,0.11-3.04,0.32c-1.06,0.21-1.59,0.58-1.59,1.11c0,0.29,0.13,0.5,0.4,0.63c0.27,0.13,0.6,0.2,0.98,0.2
	c0.4,0,0.9-0.18,1.49-0.55c0.59-0.37,1.08-0.55,1.49-0.55c0.7,0,1.22,0.16,1.56,0.49c0.34,0.33,0.51,0.76,0.51,1.32h-0.76
	c-1.64,0-3.13,0.23-4.47,0.7c-1.34,0.47-2.01,1.25-2.01,2.33c0,0.83,0.39,1.49,1.17,1.95c0.78,0.47,1.73,0.7,2.84,0.7
	c0.73,0,1.4-0.11,2.01-0.32c0.61-0.21,1.09-0.54,1.45-0.98c0,0.42,0.07,0.71,0.2,0.85c0.13,0.14,0.47,0.21,1.01,0.21h2.25
	c0.37,0,0.67-0.03,0.89-0.09c0.22-0.06,0.33-0.22,0.33-0.46c0-0.15-0.04-0.25-0.12-0.32c-0.08-0.06-0.23-0.13-0.46-0.21
	c-0.22-0.08-0.37-0.18-0.45-0.3c-0.07-0.12-0.12-0.27-0.12-0.46c-0.01-0.18-0.01-0.36-0.01-0.52V19.64z M6.86,21.24
	c0,0.71-0.13,1.28-0.4,1.73c-0.27,0.44-0.81,0.66-1.63,0.66c-0.52,0-0.96-0.11-1.33-0.33c-0.37-0.22-0.55-0.53-0.55-0.92
	c0-0.47,0.36-0.79,1.07-0.98c0.72-0.18,1.07-0.43,1.07-0.75c0-0.33-0.19-0.58-0.58-0.75c-0.39-0.17-0.82-0.26-1.3-0.26
	c-0.92,0-1.69,0.22-2.3,0.65C0.31,20.73,0,21.29,0,21.97c0,1.03,0.53,1.78,1.59,2.26c1.06,0.48,2.3,0.72,3.73,0.72
	c0.76,0,1.55-0.09,2.36-0.26c0.81-0.17,1.48-0.43,2.01-0.79c0.53-0.35,0.87-0.77,1.02-1.24c0.15-0.47,0.22-1.08,0.22-1.83v-6.78
	c0-0.17,0.03-0.31,0.08-0.43c0.05-0.11,0.16-0.2,0.32-0.26l0.25-0.1c0.18-0.09,0.31-0.16,0.4-0.21c0.09-0.05,0.13-0.16,0.13-0.34
	c0-0.23-0.1-0.38-0.3-0.46c-0.2-0.08-0.47-0.12-0.79-0.12H6.77c-0.3,0-0.56,0.05-0.77,0.14c-0.22,0.09-0.32,0.24-0.32,0.45
	c0,0.15,0.04,0.25,0.12,0.32c0.08,0.06,0.22,0.14,0.41,0.23l0.25,0.1c0.16,0.06,0.27,0.14,0.32,0.26c0.05,0.11,0.08,0.25,0.08,0.41
	V21.24z"/>
<path class="st0" d="M78.9,0.12h-2.04v5.2l-3.42-5.2h-2.04v8.39h2.04V3.33l3.42,5.18h2.04V0.12z M61.63,5.45l1.03-3.07l1.04,3.07
	H61.63z M64.72,8.51h2.16l-3.04-8.39h-2.37l-3.04,8.39h2.14l0.5-1.48h3.13L64.72,8.51z M49.67,1.82h1.27c0.37,0,0.66,0.09,0.84,0.27
	c0.19,0.18,0.28,0.43,0.28,0.75c0,0.33-0.09,0.59-0.28,0.78C51.59,3.8,51.31,3.9,50.93,3.9h-1.27V1.82z M54.21,8.51l-1.94-3.32
	c0.61-0.18,1.08-0.49,1.39-0.93c0.31-0.44,0.47-0.94,0.47-1.49c0-0.49-0.12-0.94-0.35-1.34c-0.23-0.4-0.58-0.72-1.05-0.95
	c-0.47-0.23-1.03-0.35-1.69-0.35h-3.43v8.39h2.04V5.34h0.49l1.74,3.17H54.21z M38.61,6.73c-0.68,0-1.22-0.22-1.62-0.66
	c-0.4-0.44-0.6-1.03-0.6-1.77c0-0.75,0.2-1.34,0.6-1.78c0.4-0.44,0.94-0.66,1.62-0.66c0.67,0,1.21,0.22,1.61,0.66
	c0.4,0.44,0.6,1.03,0.6,1.77c0,0.73-0.2,1.32-0.6,1.77C39.81,6.51,39.28,6.73,38.61,6.73 M38.61,8.59c0.79,0,1.51-0.18,2.16-0.55
	c0.65-0.37,1.17-0.88,1.55-1.54c0.38-0.66,0.57-1.4,0.57-2.22s-0.19-1.56-0.57-2.21c-0.38-0.65-0.9-1.16-1.55-1.53
	C40.12,0.18,39.4,0,38.61,0c-0.79,0-1.51,0.18-2.17,0.55c-0.66,0.37-1.18,0.88-1.57,1.53c-0.39,0.65-0.58,1.39-0.58,2.21
	s0.19,1.56,0.58,2.22c0.39,0.66,0.91,1.17,1.57,1.54C37.1,8.41,37.82,8.59,38.61,8.59 M30.09,8.51l-3.37-4.28l3.25-4.11h-2.4
	l-2.8,3.68V0.12h-2.04v8.39h2.04V4.8l2.82,3.71H30.09z"/>
</svg>
